<?xml version="1.0" standalone="no"?>
<!DOCTYPE svg PUBLIC "-//W3C//DTD SVG 20010904//EN"
 "http://www.w3.org/TR/2001/REC-SVG-20010904/DTD/svg10.dtd">
<svg version="1.0" xmlns="http://www.w3.org/2000/svg"
 width="1280.000000pt" height="720.000000pt" viewBox="0 0 1280.000000 720.000000"
 preserveAspectRatio="xMidYMid meet">
<metadata>
Created by potrace 1.15, written by Peter Selinger 2001-2017
</metadata>
<g transform="translate(0.000000,720.000000) scale(0.100000,-0.100000)"
fill="#000000" stroke="none">
<path d="M4300 5974 c-91 -20 -176 -64 -242 -127 -72 -69 -113 -134 -139 -217
-19 -64 -19 -98 -17 -2055 l3 -1990 23 -57 c51 -125 165 -239 290 -290 l57
-23 1980 -3 c1353 -1 1996 1 2031 8 169 35 311 169 367 345 l22 70 0 1960 c0
2135 4 1996 -57 2117 -31 64 -120 161 -185 201 -23 14 -70 37 -105 49 l-63 23
-1950 2 c-1650 1 -1960 -1 -2015 -13z m2205 -754 c633 -227 1153 -416 1157
-419 4 -3 -280 -171 -630 -372 l-637 -367 -45 27 c-35 20 -58 26 -105 26 -202
-2 -290 -232 -140 -364 57 -50 99 -64 170 -58 l59 5 -124 -80 c-69 -44 -126
-82 -128 -83 -9 -8 -562 -1561 -558 -1570 2 -5 134 -83 294 -173 l290 -163
-10 -40 c-6 -21 -15 -39 -21 -39 -9 0 -1132 404 -1394 502 l-52 19 11 32 c6
18 13 35 17 39 3 3 161 -24 349 -61 228 -45 345 -64 348 -57 200 553 554 1550
554 1561 0 8 -130 469 -290 1024 -159 555 -290 1015 -290 1021 0 7 6 10 13 7
6 -2 530 -190 1162 -417z m1448 -309 c9 -16 17 -34 17 -39 0 -8 -87 -64 -158
-102 -20 -10 -23 -10 -15 3 14 25 128 166 133 167 3 0 13 -13 23 -29z m-92
-183 l33 -14 -729 -474 c-400 -261 -734 -479 -742 -483 -8 -5 -4 9 9 35 18 34
23 59 23 118 l0 75 660 383 c699 405 670 390 746 360z"/>
</g>
</svg>
